<svg width="55" height="64" viewBox="0 0 57 66" fill="none" xmlns="http://www.w3.org/2000/svg">
<g id="circle-chevron-left-solid 2" clip-path="url(#clip0_6_35)">
<path id="Vector" d="M1.0002 33.107C1.03321 41.5939 3.96217 49.7219 9.14272 55.7029C14.3233 61.684 21.3311 65.0282 28.6245 64.9998C35.9179 64.9714 42.8994 61.5728 48.0333 55.5516C53.1672 49.5305 56.0328 41.3799 55.9998 32.8931C55.9668 24.4062 53.0378 16.2782 47.8573 10.2972C42.6767 4.3161 35.6689 0.971913 28.3755 1.00029C21.0821 1.02866 14.1005 4.42726 8.96668 10.4484C3.83281 16.4696 0.967184 24.6202 1.0002 33.107ZM26.9475 48.1312C25.9423 49.3101 24.3095 49.3165 23.3059 48.1454C22.3024 46.9743 22.2842 45.0743 23.2895 43.9079L32.5928 32.9966L23.2048 22.1581C22.1905 20.987 22.1831 19.087 23.1884 17.9206C24.1936 16.7542 25.8263 16.7353 26.8299 17.9064L38.0522 30.8379C39.0665 32.0089 39.0739 33.9089 38.0687 35.0753L26.9475 48.1312Z" fill="black"/>
</g>
<defs>
<clipPath id="clip0_6_35">
<rect width="55" height="64" fill="white" transform="translate(56.1243 64.8928) rotate(179.777)"/>
</clipPath>
</defs>
</svg>



