<svg width="55" height="64" viewBox="0 0 55 64" fill="none" xmlns="http://www.w3.org/2000/svg">
<g id="circle-chevron-left-solid 1" opacity="1" clip-path="url(#clip0_4_19)">
<path id="Vector" d="M55 32C55 23.5131 52.1027 15.3737 46.9454 9.37258C41.7882 3.37142 34.7935 0 27.5 0C20.2065 0 13.2118 3.37142 8.05456 9.37258C2.89731 15.3737 0 23.5131 0 32C0 40.4869 2.89731 48.6263 8.05456 54.6274C13.2118 60.6286 20.2065 64 27.5 64C34.7935 64 41.7882 60.6286 46.9454 54.6274C52.1027 48.6263 55 40.4869 55 32ZM29.1113 16.875C30.1211 15.7 31.7539 15.7 32.7529 16.875C33.752 18.05 33.7627 19.95 32.7529 21.1125L23.4072 31.9875L32.7529 42.8625C33.7627 44.0375 33.7627 45.9375 32.7529 47.1C31.7432 48.2625 30.1104 48.275 29.1113 47.1L17.9395 34.125C16.9297 32.95 16.9297 31.05 17.9395 29.8875L29.1113 16.875Z" fill="black"/>
</g>
<defs>
<clipPath id="clip0_4_19">
<rect width="55" height="64" fill="white" />
</clipPath>
</defs>
</svg>
